<?xml version="1.0" standalone="no"?>
<!DOCTYPE svg PUBLIC "-//W3C//DTD SVG 20010904//EN"
 "http://www.w3.org/TR/2001/REC-SVG-20010904/DTD/svg10.dtd">
<svg version="1.0" xmlns="http://www.w3.org/2000/svg"
 width="534.000000pt" height="534.000000pt" viewBox="0 0 534.000000 534.000000"
 preserveAspectRatio="xMidYMid meet">
<metadata>
Created by potrace 1.11, written by Peter Selinger 2001-2013
</metadata>
<g transform="translate(0.000000,534.000000) scale(0.100000,-0.100000)"
fill="#000000" stroke="none">
<path d="M2965 5049 c-117 -19 -377 -101 -435 -137 -19 -12 -40 -22 -46 -22
-6 0 -29 -16 -51 -35 -22 -19 -52 -39 -66 -44 -14 -6 -45 -36 -69 -68 -23 -32
-62 -80 -85 -106 -23 -27 -54 -72 -69 -100 -14 -29 -48 -86 -74 -127 -97 -151
-221 -360 -224 -377 -1 -7 -12 -23 -24 -36 -25 -26 -28 -43 -9 -50 9 -3 9 -7
-2 -20 -17 -21 -33 -160 -19 -168 6 -4 3 -43 -10 -110 -34 -172 -35 -181 -21
-190 10 -6 10 -12 -3 -26 -14 -15 -17 -40 -15 -158 l2 -140 33 -3 c18 -2 30
-8 27 -13 -4 -5 -17 -6 -31 -3 -17 4 -24 2 -24 -7 1 -42 43 -207 73 -289 72
-195 80 -236 49 -263 -23 -21 -44 -21 -85 -1 -31 16 -32 16 -16 -2 9 -11 19
-26 22 -36 6 -18 107 -52 120 -39 4 4 2 57 -4 117 -16 148 -19 233 -8 262 5
13 5 21 0 18 -10 -7 -24 175 -15 209 5 19 1 30 -12 39 -16 12 -16 16 -5 30 14
17 54 274 52 331 -1 38 50 214 81 280 35 75 37 78 54 64 21 -17 17 -34 -16
-70 -49 -54 -74 -180 -33 -165 8 3 18 6 23 6 4 0 17 16 29 35 11 19 28 35 37
35 10 0 32 5 49 11 48 18 101 3 138 -36 56 -61 58 -63 45 -71 -12 -7 -104 -15
-160 -14 -16 0 -28 -3 -28 -8 0 -4 -18 -16 -40 -26 -22 -10 -40 -21 -40 -26 0
-5 -3 -16 -7 -26 -4 -12 -3 -15 5 -10 8 5 12 0 12 -13 0 -12 -4 -21 -9 -21
-10 0 4 -72 20 -101 7 -14 19 -19 40 -17 17 1 33 6 35 10 3 4 14 8 25 8 10 0
19 4 19 9 0 14 73 19 93 7 24 -15 21 -28 -13 -51 -33 -22 -39 -42 -14 -52 13
-5 11 -10 -11 -29 -15 -13 -31 -21 -35 -19 -4 3 -10 -4 -13 -16 -5 -18 -2 -20
26 -13 18 5 58 8 90 9 37 0 57 4 57 12 0 14 19 27 27 19 3 -3 0 -12 -7 -21
-15 -18 -3 -19 36 -4 16 5 56 12 91 14 35 2 72 9 84 15 25 14 39 50 28 71 -5
10 -3 23 6 35 8 11 15 26 15 34 0 8 13 21 29 28 16 7 32 23 35 37 4 16 11 22
21 19 8 -4 21 -1 29 5 8 7 24 14 35 16 17 3 23 -2 28 -26 3 -16 9 -29 14 -29
5 0 9 -7 9 -15 0 -8 4 -15 9 -15 5 0 9 -6 8 -12 -1 -34 4 -48 18 -48 9 0 18
-7 21 -15 4 -8 10 -15 15 -15 19 0 99 -66 105 -87 4 -15 -2 -30 -20 -50 -14
-15 -26 -39 -26 -53 0 -14 -4 -30 -9 -36 -5 -5 -11 -31 -14 -59 -7 -67 -17
-105 -29 -105 -5 0 -6 5 -3 10 9 14 -1 12 -17 -3 -7 -7 -31 -26 -53 -42 -22
-17 -42 -32 -45 -36 -9 -10 -45 -22 -58 -20 -8 1 -16 -7 -19 -18 -3 -12 -8
-21 -12 -21 -9 0 -51 48 -51 58 0 13 -35 11 -76 -3 -27 -9 -40 -20 -42 -35 -5
-29 25 -60 57 -60 14 0 46 -11 71 -24 38 -19 45 -27 48 -57 2 -23 14 -43 37
-64 60 -55 79 -65 118 -65 42 0 97 -32 97 -56 0 -8 -10 -14 -25 -14 -14 0 -25
-4 -25 -9 0 -9 -58 -21 -115 -24 -34 -1 -88 8 -104 18 -6 3 -11 1 -11 -5 0 -6
-5 -8 -10 -5 -15 9 -134 -22 -199 -53 -72 -34 -89 -51 -81 -83 8 -27 -4 -69
-19 -69 -19 0 -22 20 -5 45 10 15 12 25 5 25 -6 0 -11 -6 -11 -12 0 -9 -4 -8
-10 2 -13 20 -12 26 5 44 13 12 14 20 5 36 -9 16 -8 25 0 35 7 8 10 18 7 22
-18 30 38 201 87 267 39 51 67 123 60 151 -3 14 -1 38 6 54 6 16 10 39 8 52
-3 21 -5 20 -40 -17 -67 -70 -98 -107 -98 -115 0 -5 -16 -23 -35 -42 -19 -19
-35 -37 -35 -41 0 -4 -11 -22 -25 -40 -14 -18 -25 -38 -25 -45 0 -7 -4 -9 -10
-6 -6 3 -10 -4 -10 -18 0 -25 -22 -52 -33 -40 -4 3 -7 -1 -7 -11 0 -11 5 -15
13 -10 6 4 5 -1 -4 -12 -12 -15 -15 -39 -13 -107 2 -48 5 -91 8 -95 2 -4 3
-33 2 -65 -1 -32 0 -60 3 -62 3 -3 6 -16 8 -28 3 -26 22 -105 31 -127 3 -8 4
-20 3 -27 -1 -6 8 -30 20 -53 15 -29 25 -73 32 -143 5 -56 12 -104 16 -107 11
-9 56 -74 70 -102 8 -16 18 -28 23 -28 5 0 7 -8 4 -18 -4 -12 4 -28 24 -47 29
-28 30 -28 30 -7 0 12 -5 22 -11 22 -5 0 -8 3 -5 8 5 9 -22 133 -33 147 -15
18 -31 138 -28 203 2 35 0 65 -5 68 -10 7 -10 61 0 68 7 4 44 -69 48 -94 0 -3
3 -12 7 -20 3 -8 13 -46 22 -85 9 -38 20 -79 25 -90 5 -11 11 -40 14 -65 2
-25 16 -65 30 -89 13 -25 23 -48 21 -52 -6 -9 91 -109 99 -102 3 4 6 -3 6 -15
0 -11 7 -28 16 -36 9 -10 13 -24 9 -36 -5 -17 -2 -20 22 -21 15 0 37 -3 48 -6
11 -2 43 -8 70 -13 28 -5 65 -13 84 -19 19 -6 37 -8 42 -5 4 2 20 2 34 -2 18
-4 25 -13 25 -30 0 -24 14 -32 25 -14 3 5 12 7 20 4 8 -4 12 -10 9 -15 -3 -5
4 -9 15 -9 12 0 21 -3 21 -6 0 -8 -32 -39 -42 -40 -4 -1 -11 -2 -16 -3 -4 0
-12 -9 -18 -18 -9 -16 -7 -18 15 -18 27 1 84 27 113 52 9 8 22 12 27 8 7 -3
11 2 11 14 0 12 5 21 12 21 6 0 33 18 59 40 26 22 52 40 58 40 11 0 39 56 72
145 12 33 25 69 30 80 4 11 13 48 20 83 6 34 16 65 20 68 5 3 9 22 9 42 0 21
7 48 16 60 9 13 13 31 9 42 -4 13 -1 22 9 26 9 3 14 10 11 14 -3 4 2 13 10 20
17 14 16 20 18 -117 1 -46 -1 -83 -4 -83 -4 0 -9 -18 -13 -40 -3 -22 -11 -40
-16 -40 -6 0 -8 -11 -4 -24 3 -13 1 -26 -4 -30 -5 -3 -7 -17 -4 -31 5 -31 -5
-33 -18 -2 l-9 22 0 -24 c-1 -13 -8 -29 -16 -35 -9 -6 -18 -23 -20 -39 -3 -15
-13 -36 -23 -47 -9 -12 -17 -24 -17 -28 -2 -46 -53 -160 -77 -170 -4 -2 -8
-10 -8 -18 0 -8 -5 -14 -12 -14 -7 0 -25 -12 -40 -27 -32 -31 -58 -38 -58 -16
0 12 -3 13 -13 4 -8 -6 -17 -8 -20 -5 -3 3 -16 -3 -28 -15 -16 -14 -31 -19
-51 -16 -16 3 -28 1 -28 -5 0 -6 -4 -8 -10 -5 -5 3 -20 0 -32 -6 -13 -7 -35
-12 -50 -11 -15 1 -30 -3 -34 -9 -4 -7 0 -9 12 -5 13 4 24 -1 32 -15 8 -12 9
-18 3 -14 -6 3 -11 2 -11 -4 0 -5 -13 -12 -30 -16 -16 -4 -30 -10 -30 -14 0
-13 -51 0 -56 14 -4 10 -11 10 -30 1 -13 -6 -24 -14 -24 -18 0 -10 -44 -10
-54 -1 -3 4 -14 8 -24 9 -9 1 -28 6 -42 10 -23 7 -24 6 -10 -10 8 -10 23 -22
35 -27 85 -40 145 -100 145 -147 0 -17 3 -32 8 -35 4 -2 2 -3 -4 -1 -11 2 -25
-50 -29 -103 -1 -28 -24 -54 -43 -51 -8 2 -17 -3 -20 -11 -3 -9 0 -12 10 -9 7
3 22 0 33 -8 13 -10 14 -14 5 -14 -11 0 -11 -3 -2 -12 10 -10 15 -10 22 2 5 8
11 12 14 9 13 -13 -41 -49 -73 -49 -11 0 -22 6 -24 13 -3 7 -6 5 -6 -5 -1 -18
3 -20 48 -22 31 -1 40 -26 11 -33 -13 -4 -19 -11 -16 -20 3 -8 6 -19 6 -24 0
-19 22 -8 38 21 9 16 24 30 34 30 12 0 15 6 11 22 -5 21 -3 20 24 -8 l31 -32
13 24 c12 24 39 33 39 14 0 -5 -4 -10 -10 -10 -5 0 -10 -8 -9 -17 0 -11 3 -13
6 -5 2 6 11 12 19 12 8 0 14 7 14 16 0 11 6 15 18 12 10 -3 33 6 52 18 19 13
30 24 25 24 -5 0 0 6 10 14 27 20 54 5 135 -77 38 -38 73 -66 79 -62 6 3 9 0
6 -7 -6 -14 64 -98 81 -98 6 0 17 -12 24 -27 12 -27 13 -27 20 -7 5 12 16 24
25 28 14 5 16 2 11 -17 -3 -12 1 -35 9 -51 10 -19 12 -33 5 -46 -12 -23 15
-37 28 -13 8 13 11 13 24 -6 8 -11 18 -18 21 -14 4 3 7 -3 7 -15 0 -15 6 -22
20 -22 11 0 20 -5 20 -11 0 -6 5 -7 13 -2 22 14 68 9 66 -7 -3 -29 1 -41 11
-35 6 3 13 -1 16 -9 7 -19 60 -22 66 -4 5 13 28 2 28 -13 0 -6 -4 -7 -10 -4
-6 4 -7 -1 -3 -11 5 -14 8 -13 19 7 l14 24 -3 -25 c-1 -14 -9 -30 -17 -37 -13
-10 -11 -12 12 -13 15 0 30 5 33 10 10 16 28 12 21 -5 -3 -8 -1 -15 4 -15 6 0
10 7 10 15 0 18 12 19 28 3 9 -9 13 -7 18 5 3 9 15 17 26 17 14 0 18 -5 14
-15 -3 -8 -1 -15 4 -15 6 0 10 14 10 31 0 25 3 30 16 25 12 -4 15 -2 10 9 -3
8 -1 15 4 15 6 0 10 7 10 15 0 21 35 76 43 68 10 -9 47 33 47 53 0 16 -2 16
-15 -2 -14 -18 -14 -18 -15 8 0 20 -4 26 -15 22 -8 -4 -22 -1 -29 5 -14 12
-66 5 -66 -8 0 -4 -19 -7 -42 -8 -30 -2 -46 3 -58 17 -13 15 -19 17 -29 7 -10
-9 -11 -8 -6 5 5 11 1 16 -12 15 -10 -1 -22 8 -28 21 -5 12 -15 22 -22 22 -7
0 -13 5 -13 11 0 6 -9 8 -20 4 -16 -5 -20 -2 -20 15 0 17 5 21 20 17 15 -4 20
0 20 14 0 10 5 19 11 19 5 0 7 5 4 10 -3 6 -1 10 6 10 7 0 9 3 6 6 -4 4 -13 1
-22 -6 -13 -11 -14 -10 -10 3 4 9 -2 21 -16 31 l-22 15 25 26 c17 17 24 33 21
45 -5 21 -23 28 -23 10 0 -5 -4 -10 -10 -10 -5 0 -7 6 -4 14 3 8 1 17 -5 21
-18 10 -12 25 9 25 11 0 20 5 20 10 0 6 -11 10 -25 10 -33 0 -32 16 0 23 18 3
30 -2 41 -17 15 -20 15 -20 8 7 -5 21 -3 27 10 27 9 0 16 -5 16 -11 0 -6 6 -9
14 -6 10 4 16 -3 19 -21 3 -18 4 -13 6 16 0 27 6 42 14 42 7 0 13 9 13 19 0
18 -2 17 -22 -4 -28 -30 -64 -24 -64 11 0 17 6 24 20 24 11 0 20 6 20 14 0 16
43 30 48 16 2 -6 8 -10 14 -10 6 0 5 6 -2 15 -7 8 -13 34 -14 58 -1 23 -6 49
-11 56 -5 8 -10 47 -12 85 -2 39 -6 100 -9 136 -8 104 -8 206 0 343 l8 127 53
90 c50 84 76 141 120 265 10 28 22 55 26 60 4 6 12 29 18 53 7 23 16 42 22 42
6 0 8 -4 5 -9 -3 -5 1 -14 9 -21 18 -15 18 -14 6 28 -8 25 -7 32 5 32 8 0 14
-9 14 -20 0 -10 10 -28 21 -39 20 -18 24 -19 43 -5 12 8 21 25 21 37 0 15 5
21 18 19 19 -3 23 13 6 23 -17 11 -6 24 41 47 25 13 50 34 57 47 6 13 19 28
27 33 9 5 16 18 16 28 0 14 7 20 23 20 13 0 32 9 41 19 16 17 17 26 7 71 -6
28 -11 68 -11 90 0 34 6 44 49 80 27 23 57 57 66 76 9 19 18 34 21 34 3 0 2
-5 -2 -12 -4 -7 -3 -8 5 -4 6 4 9 12 6 17 -4 5 10 36 29 68 20 32 36 64 36 71
0 7 6 10 13 7 30 -11 62 168 59 323 -1 41 -11 145 -21 230 -11 85 -19 171 -18
190 1 44 -45 269 -78 376 -14 45 -25 89 -25 98 0 22 -71 161 -131 259 -27 43
-46 83 -43 88 3 5 0 8 -7 7 -7 -2 -15 9 -18 24 -4 17 -73 94 -196 217 -283
284 -288 288 -281 267 6 -18 5 -18 -19 -2 -14 10 -34 14 -44 11 -10 -3 -24 1
-31 10 -7 8 -17 15 -22 15 -5 0 -25 12 -44 27 -43 32 -32 49 22 34 21 -6 40
-9 42 -6 8 8 -75 23 -153 28 -44 3 -72 3 -62 0 9 -2 17 -11 17 -19 0 -11 6
-13 22 -8 19 6 20 5 8 -7 -22 -21 -150 -23 -150 -3 0 9 -8 14 -17 13 -24 -3
-54 11 -47 22 7 12 -45 31 -68 25 -10 -2 -33 0 -51 4 -68 18 -278 18 -392 -1z
m518 -106 c-5 -32 -23 -47 -23 -19 0 8 -3 21 -6 29 -3 10 1 17 13 19 10 3 19
4 19 4 1 -1 -1 -16 -3 -33z m277 17 c0 -5 5 -10 10 -10 6 0 37 -17 68 -37 31
-20 60 -36 65 -35 4 1 7 -3 7 -9 0 -5 4 -8 9 -4 6 3 15 -4 22 -16 6 -12 29
-42 52 -66 47 -51 43 -66 -10 -31 -41 27 -83 44 -83 33 0 -3 5 -16 11 -27 9
-16 8 -19 -2 -13 -7 5 -5 -2 4 -16 9 -13 17 -27 17 -31 0 -9 -52 10 -60 21 -8
13 -54 25 -46 12 11 -17 0 -13 -40 14 -34 23 -39 24 -53 10 -13 -13 -14 -17
-2 -24 7 -5 10 -14 7 -20 -4 -6 5 -22 19 -35 29 -27 38 -58 29 -99 -5 -22 -9
-26 -19 -17 -7 6 -11 22 -9 36 2 13 0 24 -5 24 -5 0 -13 9 -16 20 -4 11 -11
18 -16 15 -5 -3 -6 1 -3 9 5 14 -20 64 -40 78 -5 3 -10 15 -11 25 -2 30 -14
42 -55 53 -22 6 -40 15 -40 21 0 6 5 7 10 4 14 -9 249 -12 244 -3 -2 4 0 9 5
12 5 4 12 2 16 -4 3 -5 12 -10 18 -10 7 0 3 7 -8 16 -11 8 -27 20 -35 27 -66
53 -92 68 -110 62 -14 -5 -18 -2 -15 7 6 16 65 23 65 8z m-200 -55 c0 4 5 3
12 -1 8 -5 2 -10 -16 -15 -19 -6 -33 -4 -42 6 -25 25 -16 36 16 20 17 -9 30
-13 30 -10z m95 -35 c3 -5 -1 -10 -9 -10 -8 0 -18 5 -21 10 -3 6 1 10 9 10 8
0 18 -4 21 -10z m-102 -88 c4 -1 7 -9 7 -17 0 -17 -65 -22 -75 -5 -13 22 18
32 68 22z m88 -40 c39 -41 41 -49 24 -81 -10 -21 -12 -32 -4 -37 6 -3 15 -1
19 6 5 8 11 1 18 -19 9 -25 8 -31 -2 -31 -8 0 -17 7 -20 15 -5 14 -8 14 -31
-1 -14 -9 -25 -13 -25 -8 0 4 -5 3 -12 -4 -15 -15 -52 -16 -43 -1 4 5 12 8 18
6 6 -2 19 13 29 32 21 41 22 44 8 36 -5 -3 -10 0 -10 7 -1 8 -6 6 -15 -6 -8
-11 -15 -14 -15 -8 0 7 -7 12 -16 12 -8 0 -12 5 -9 11 4 6 14 8 22 5 19 -8 7
34 -16 52 -9 7 -11 12 -6 11 35 -5 57 2 51 16 -8 23 6 17 35 -13z m-139 -24
c-2 -10 2 -20 12 -24 9 -3 16 -10 16 -15 0 -4 -7 -5 -17 -2 -11 4 -14 3 -9 -5
4 -7 2 -12 -3 -12 -6 0 -11 11 -11 25 0 18 -4 23 -15 19 -8 -4 -15 -1 -15 5 0
6 8 11 18 12 14 0 14 2 -3 9 -18 8 -17 9 6 7 20 -1 25 -5 21 -19z m353 -18 c3
-5 1 -10 -4 -10 -6 0 -11 5 -11 10 0 6 2 10 4 10 3 0 8 -4 11 -10z m-300 -60
c-11 -5 -27 -9 -35 -9 -9 0 -8 4 5 9 11 5 27 9 35 9 9 0 8 -4 -5 -9z m102 -92
c-3 -7 -5 -2 -5 12 0 14 2 19 5 13 2 -7 2 -19 0 -25z m68 -8 c-3 -5 0 -10 8
-10 8 0 20 -7 28 -16 11 -14 10 -15 -7 -12 -13 2 -19 -3 -19 -17 -1 -56 -18
-145 -30 -155 -39 -33 -43 87 -4 158 9 19 15 40 12 48 -3 8 0 14 7 14 6 0 8
-4 5 -10z m-57 -42 c-1 -47 -21 -159 -27 -153 -2 3 -6 13 -7 23 -2 9 -6 29
-10 44 -10 42 3 98 21 91 9 -3 15 1 15 11 0 9 2 16 5 16 2 0 4 -15 3 -32z
m-1468 7 c-7 -9 -15 -13 -17 -11 -7 7 7 26 19 26 6 0 6 -6 -2 -15z m960 -21
c0 -7 -5 -14 -10 -16 -7 -2 -6 -14 3 -36 7 -18 16 -30 19 -27 2 3 4 -15 4 -39
-1 -46 -26 -92 -26 -48 0 12 -4 22 -10 22 -5 0 -9 -5 -7 -12 1 -6 -6 -14 -15
-16 -10 -2 -18 2 -18 9 0 7 8 22 18 33 16 20 16 20 -2 6 -18 -14 -18 -12 -12
55 3 38 11 72 17 75 17 11 39 7 39 -6z m595 6 c3 -5 1 -10 -4 -10 -6 0 -11 5
-11 10 0 6 2 10 4 10 3 0 8 -4 11 -10z m-1615 -38 c0 -5 -6 -16 -13 -27 -13
-17 -14 -16 -11 6 3 31 2 29 14 29 6 0 10 -4 10 -8z m216 -70 c-15 -15 -16
-14 -16 7 0 12 6 32 12 44 13 22 13 21 16 -7 2 -17 -3 -35 -12 -44z m1120 31
c-10 -10 -19 5 -10 18 6 11 8 11 12 0 2 -7 1 -15 -2 -18z m97 -56 c-3 -13 -11
-24 -19 -24 -10 0 -14 13 -14 46 1 46 1 46 19 24 11 -13 17 -32 14 -46z m-742
6 c1 -10 0 -29 -1 -42 -1 -14 2 -21 9 -17 7 4 11 -1 11 -13 0 -26 15 -35 17
-11 1 11 -2 22 -8 25 -5 4 -9 13 -9 21 0 12 7 11 33 -7 17 -13 38 -31 45 -41
7 -9 19 -24 27 -32 8 -8 15 -21 15 -28 0 -7 9 -21 20 -31 19 -16 29 -78 13
-76 -30 5 -6 -28 36 -51 27 -14 30 -56 4 -45 -10 4 -29 10 -43 12 -36 7 -107
40 -116 54 -5 9 -2 10 9 6 9 -3 19 -2 23 4 3 6 12 8 20 5 9 -3 14 1 14 13 0
21 -32 21 -69 2 -15 -8 -21 -9 -21 -1 0 6 -4 9 -8 6 -15 -9 -82 89 -82 120 0
27 15 102 25 132 7 18 35 14 36 -5z m-501 3 c0 -35 -51 -99 -67 -83 -10 11 41
87 59 87 4 0 8 -2 8 -4z m255 -59 c-10 -30 -46 -89 -52 -83 -3 2 -1 11 3 18 4
7 7 27 5 44 -1 18 2 35 8 39 6 3 11 16 11 28 l0 21 16 -22 c9 -14 13 -31 9
-45z m-217 -7 c-7 -11 -17 -20 -22 -20 -6 0 -2 -6 8 -13 43 -32 0 -206 -70
-279 -19 -21 -32 -38 -28 -38 3 0 1 -7 -6 -15 -11 -13 -15 -13 -21 -3 -7 10
-9 9 -9 -3 0 -14 -62 -49 -86 -49 -3 0 -3 27 0 60 5 52 46 165 66 180 4 3 10
14 15 25 7 18 9 17 15 -10 l8 -30 2 30 c4 62 16 84 89 156 33 33 57 39 39 9z
m1322 0 c0 -5 -7 -7 -15 -4 -8 4 -12 10 -9 15 6 11 24 2 24 -11z m238 -5 c-6
-13 -15 -22 -20 -19 -5 3 -2 15 8 25 23 25 26 24 12 -6z m-1357 -149 c-7 -17
-20 -52 -28 -78 -15 -50 -39 -67 -31 -23 4 18 1 25 -10 25 -10 0 -12 3 -4 13
6 6 13 29 17 50 4 22 11 34 14 29 12 -20 34 4 26 29 -7 22 -7 22 10 5 16 -16
17 -22 6 -50z m181 -48 c27 -28 48 -60 48 -70 0 -11 -15 -38 -32 -61 -18 -23
-34 -44 -35 -46 -6 -10 -153 -11 -153 -2 0 6 16 25 35 44 19 19 35 42 35 51 0
9 11 38 26 63 14 25 23 52 20 59 -10 27 9 14 56 -38z m-311 -138 c10 -6 19
-21 19 -33 0 -25 -35 -61 -50 -52 -6 4 -10 2 -10 -4 0 -5 5 -11 11 -13 20 -7
-31 -57 -66 -64 -58 -11 -103 16 -52 32 37 11 97 58 97 76 0 18 20 68 27 68 2
0 13 -5 24 -10z m429 -12 c0 -10 3 -10 9 0 5 8 17 12 27 10 14 -3 19 -12 18
-36 -1 -18 2 -32 8 -32 5 0 7 -4 3 -9 -3 -5 -1 -13 5 -16 6 -4 24 8 41 26 24
26 39 33 72 34 23 1 65 6 93 10 42 6 52 5 57 -9 4 -9 3 -16 -2 -16 -13 0 -51
-37 -51 -50 0 -7 -7 -10 -17 -6 -16 6 -16 5 -1 -11 24 -27 2 -53 -46 -53 -25
0 -36 -5 -37 -15 -1 -8 -2 -21 -3 -27 -1 -14 -16 -28 -29 -28 -4 0 -13 11 -19
25 -17 38 -54 31 -50 -10 2 -16 -1 -25 -5 -20 -4 6 -25 11 -47 12 l-39 3 6
-45 c5 -33 3 -48 -9 -60 -8 -8 -13 -15 -9 -15 3 0 -1 -10 -9 -21 -8 -12 -12
-28 -9 -35 6 -16 -6 -18 -41 -5 -16 7 -26 7 -28 0 -4 -11 -68 8 -68 21 0 5 7
16 16 24 8 9 12 16 8 16 -4 0 3 11 16 25 31 33 39 115 11 115 -16 0 -64 -29
-49 -30 19 -1 -29 -40 -49 -40 -32 0 -103 23 -103 33 0 9 -67 40 -89 41 -28 2
-21 22 13 35 21 9 39 25 48 45 8 19 19 29 28 27 8 -3 35 -6 60 -9 25 -2 49 -8
54 -12 5 -5 25 0 45 11 19 10 43 19 51 19 18 1 60 34 60 49 0 10 39 41 52 41
5 0 8 -6 8 -12z m303 -160 c4 -10 8 -9 16 2 7 9 11 10 11 3 0 -21 -41 -43 -55
-30 -8 8 -9 15 -1 24 14 16 23 16 29 1z m254 -364 c-3 -3 -12 -4 -19 -1 -8 3
-5 6 6 6 11 1 17 -2 13 -5z m-122 -124 c4 -7 13 -6 27 1 25 14 52 -8 42 -34
-12 -33 -94 -12 -91 23 1 21 12 26 22 10z m-7 -133 c6 -5 12 -6 12 -2 0 4 7 2
15 -5 12 -10 15 -10 15 1 0 10 2 11 8 2 4 -6 18 -11 32 -12 78 -1 95 -3 105
-11 11 -9 43 -18 73 -19 6 -1 12 -8 12 -16 0 -8 7 -15 15 -15 8 0 15 -9 15
-19 0 -11 6 -22 13 -24 6 -3 3 -6 -8 -7 -18 -1 -19 -2 -2 -9 17 -6 16 -9 -6
-31 -43 -43 -58 -52 -74 -46 -11 5 -14 2 -9 -10 5 -12 2 -15 -13 -11 -21 5
-57 -28 -41 -38 14 -8 13 -25 -1 -25 -6 0 -20 -11 -30 -25 -12 -14 -26 -22
-35 -18 -12 4 -13 1 -4 -21 5 -14 6 -26 1 -26 -5 0 -11 9 -14 20 -3 12 -14 20
-27 20 -39 0 -97 41 -85 60 3 5 0 7 -9 4 -21 -8 -56 14 -56 36 0 10 -5 20 -12
22 -7 3 -12 25 -13 53 0 29 -5 50 -13 53 -17 5 -15 22 3 22 8 0 15 -6 15 -12
0 -9 4 -8 10 2 8 12 10 12 10 1 0 -11 3 -11 15 -1 11 9 19 10 28 1 11 -8 13
-7 12 7 -1 9 -6 26 -12 37 -8 16 -11 73 -4 82 3 4 47 -11 59 -20z m1464 -69
c-9 -9 -12 -7 -12 12 0 19 3 21 12 12 9 -9 9 -15 0 -24z m-1282 -258 c0 -13
-28 -25 -38 -16 -3 4 0 11 8 16 20 13 30 12 30 0z m34 -25 c-4 -8 -8 -15 -10
-15 -2 0 -4 7 -4 15 0 8 4 15 10 15 5 0 7 -7 4 -15z m-149 -35 c4 -16 11 -30
16 -30 5 0 9 -5 9 -11 0 -6 -10 -9 -22 -7 -15 2 -23 10 -23 23 0 11 -4 23 -9
26 -10 8 1 29 14 29 5 0 11 -13 15 -30z m105 -25 c0 -8 -2 -15 -4 -15 -2 0 -6
7 -10 15 -3 8 -1 15 4 15 6 0 10 -7 10 -15z m-445 -295 c3 -5 2 -10 -4 -10 -5
0 -13 5 -16 10 -3 6 -2 10 4 10 5 0 13 -4 16 -10z m1300 -168 c-3 -3 -10 -1
-16 5 -6 6 -18 9 -25 6 -8 -3 -14 0 -14 7 0 6 5 8 10 5 6 -3 10 2 10 12 1 15
3 15 21 -6 11 -13 17 -26 14 -29z m-1503 -14 l26 -30 21 21 c29 29 76 27 102
-3 l22 -25 27 21 c38 28 64 21 68 -18 2 -19 -3 -36 -12 -44 -21 -17 -129 -28
-221 -22 -11 1 -44 -1 -73 -4 -41 -5 -57 -2 -71 10 -10 9 -26 15 -37 14 -26
-2 -84 13 -84 22 0 20 32 82 46 87 8 3 23 -2 32 -10 16 -15 20 -15 47 3 37 25
72 17 107 -22z m1468 -72 c0 -2 -7 -7 -16 -10 -8 -3 -12 -2 -9 4 6 10 25 14
25 6z m-1873 -98 c-3 -8 -6 -5 -6 6 -1 11 2 17 5 13 3 -3 4 -12 1 -19z m1808
-18 c3 -5 -1 -10 -9 -10 -9 0 -16 5 -16 10 0 6 4 10 9 10 6 0 13 -4 16 -10z
m-1800 -20 c3 -5 1 -10 -4 -10 -6 0 -11 5 -11 10 0 6 2 10 4 10 3 0 8 -4 11
-10z m1168 -80 c3 -11 1 -20 -5 -20 -5 0 -7 -9 -3 -19 3 -11 1 -22 -5 -26 -7
-5 -10 8 -8 39 3 48 12 60 21 26z m-869 -64 c14 -19 26 -39 26 -45 0 -6 5 -11
10 -11 6 0 10 5 10 10 0 6 6 5 14 -2 10 -9 11 -15 2 -20 -8 -6 -8 -8 2 -8 6 0
12 -7 12 -15 0 -19 4 -19 43 1 30 16 32 16 45 -5 14 -20 35 -30 30 -13 -2 4 2
8 7 9 6 1 9 -4 7 -12 -1 -7 7 -16 18 -20 20 -6 19 -8 -12 -25 -64 -34 -90 -34
-151 2 -43 25 -61 44 -77 78 -12 25 -25 53 -30 62 -10 18 -4 48 10 48 4 0 19
-15 34 -34z m-124 -198 c0 -18 -15 -25 -23 -10 -3 4 -8 23 -11 42 l-7 35 20
-25 c11 -14 21 -33 21 -42z m102 -27 c10 -14 18 -17 28 -10 23 13 37 11 57
-10 20 -21 95 -51 129 -51 12 0 27 7 34 15 15 18 41 19 99 1 53 -15 60 -28 29
-50 -26 -19 -67 -21 -101 -5 -21 9 -30 7 -56 -12 -17 -12 -33 -30 -36 -39 -8
-27 -111 -15 -142 16 -11 10 -9 15 8 28 22 15 18 36 -6 36 -8 0 -17 11 -21 25
-3 14 -13 25 -23 25 -23 0 -41 19 -34 36 7 19 19 17 35 -5z m467 -57 c-12 -15
-39 -19 -39 -6 0 15 22 30 36 25 11 -4 12 -9 3 -19z m674 -739 c4 -8 2 -17 -3
-20 -6 -4 -10 3 -10 14 0 25 6 27 13 6z m67 -35 c0 -5 -7 -10 -16 -10 -8 0
-12 5 -9 10 3 6 10 10 16 10 5 0 9 -4 9 -10z m-70 -13 c11 3 20 0 20 -6 0 -6
-11 -11 -25 -11 -17 0 -25 5 -24 18 0 9 3 12 5 6 3 -7 14 -10 24 -7z m63 -47
c3 -11 1 -20 -4 -20 -5 0 -9 9 -9 20 0 11 2 20 4 20 2 0 6 -9 9 -20z m-41 -13
c-5 -7 -11 -19 -14 -27 -2 -7 -7 -10 -10 -5 -9 15 10 57 22 50 7 -4 7 -11 2
-18z m-47 -117 c-5 -8 -11 -8 -17 -2 -6 6 -7 16 -3 22 5 8 11 8 17 2 6 -6 7
-16 3 -22z m85 -439 c0 -5 -11 -8 -25 -8 -14 0 -25 3 -25 8 0 5 11 9 25 9 14
0 25 -4 25 -9z m105 -31 c3 -5 1 -10 -4 -10 -6 0 -11 5 -11 10 0 6 2 10 4 10
3 0 8 -4 11 -10z m-55 -19 c0 -5 -6 -11 -12 -14 -8 -3 -3 -9 12 -15 16 -7 19
-11 9 -11 -9 -1 -20 -8 -23 -17 -5 -13 -9 -14 -21 -4 -9 7 -14 20 -13 29 5 26
48 55 48 32z m-116 -46 c-6 -16 -24 -21 -24 -7 0 11 11 22 21 22 5 0 6 -7 3
-15z m-34 1 c0 -3 -4 -8 -10 -11 -5 -3 -10 -1 -10 4 0 6 5 11 10 11 6 0 10 -2
10 -4z m160 -75 c0 -15 -7 -19 -32 -18 -18 1 -33 8 -35 17 -4 13 -3 13 5 1 9
-13 14 -12 34 2 29 20 28 20 28 -2z"/>
<path d="M2941 4192 c-1 -7 5 -20 13 -27 12 -12 15 -11 19 6 4 15 2 19 -8 15
-8 -3 -16 0 -19 7 -3 8 -5 8 -5 -1z"/>
<path d="M2838 3902 c-16 -17 -20 -52 -8 -52 4 0 13 7 20 15 11 13 10 15 -6 9
-16 -5 -15 -3 4 14 12 12 18 23 14 26 -5 3 -16 -2 -24 -12z"/>
<path d="M2790 3880 c0 -5 5 -10 11 -10 5 0 7 5 4 10 -3 6 -8 10 -11 10 -2 0
-4 -4 -4 -10z"/>
<path d="M3105 3820 c4 -6 11 -8 16 -5 14 9 11 15 -7 15 -8 0 -12 -5 -9 -10z"/>
<path d="M3220 3050 c0 -5 5 -10 11 -10 5 0 7 5 4 10 -3 6 -8 10 -11 10 -2 0
-4 -4 -4 -10z"/>
<path d="M3190 3010 c0 -5 5 -10 10 -10 6 0 10 5 10 10 0 6 -4 10 -10 10 -5 0
-10 -4 -10 -10z"/>
<path d="M3330 2840 c0 -5 7 -7 15 -4 8 4 15 8 15 10 0 2 -7 4 -15 4 -8 0 -15
-4 -15 -10z"/>
<path d="M2842 1593 c-6 -3 -10 -9 -6 -14 7 -12 44 -12 44 0 0 11 -21 19 -38
14z"/>
<path d="M3575 5011 c-3 -5 -1 -12 4 -15 5 -3 11 1 15 9 6 16 -9 21 -19 6z"/>
<path d="M1696 3183 c-6 -14 -5 -15 5 -6 7 7 10 15 7 18 -3 3 -9 -2 -12 -12z"/>
<path d="M5194 2859 c-9 -14 -9 -720 0 -892 3 -51 8 -226 12 -389 6 -263 5
-298 -8 -298 -9 0 -20 6 -26 13 -7 8 -31 12 -64 11 -31 -1 -62 5 -75 13 -12 8
-26 15 -30 15 -4 1 -7 9 -5 20 2 11 -3 18 -14 18 -13 0 -14 3 -5 13 6 8 8 17
4 20 -3 4 -1 7 5 7 7 0 12 -8 13 -17 1 -10 5 2 10 26 5 25 13 47 19 51 6 4 8
14 4 23 -8 22 18 79 33 73 9 -4 11 3 7 24 -5 22 -2 29 12 33 16 4 16 5 -3 6
-19 1 -20 4 -10 25 6 13 17 22 24 19 8 -3 11 2 8 15 -2 12 5 28 17 39 33 29
39 59 37 182 0 64 0 127 0 141 2 85 0 544 -3 590 -1 30 -4 67 -4 81 -2 23 -6
26 -37 24 -20 -1 -38 -5 -41 -8 -3 -3 -12 -3 -20 0 -8 3 -14 1 -14 -3 0 -5
-19 -18 -41 -29 -22 -10 -46 -26 -52 -36 -7 -9 -23 -20 -36 -24 -18 -5 -20 -9
-10 -16 15 -9 15 -8 -21 -32 -15 -11 -19 -17 -10 -17 8 0 4 -6 -10 -13 -14 -7
-25 -19 -25 -27 0 -17 -19 -40 -34 -40 -5 0 -13 -9 -16 -20 -3 -11 -10 -20
-15 -20 -8 0 -18 -23 -29 -70 -5 -17 -12 -24 -24 -22 -11 2 -17 -2 -16 -10 1
-7 -3 -25 -9 -40 -6 -15 -9 -41 -7 -58 2 -21 -1 -30 -11 -30 -8 0 -14 -10 -14
-25 0 -14 -4 -25 -8 -25 -4 0 -14 -17 -22 -37 -7 -21 -20 -43 -29 -49 -13 -10
-13 -14 -2 -28 13 -15 8 -21 -13 -17 -5 1 -6 -6 -2 -15 4 -11 2 -15 -6 -11
-10 3 -12 -8 -11 -39 1 -24 -2 -44 -6 -44 -4 0 -6 -18 -4 -40 2 -24 0 -40 -7
-40 -6 0 -9 -22 -6 -60 2 -33 0 -62 -4 -65 -4 -2 -7 -18 -8 -36 0 -17 -8 -39
-16 -48 -14 -15 -14 -19 0 -33 14 -14 14 -16 0 -21 -9 -4 -15 -1 -13 5 1 6 -4
13 -10 15 -17 6 -17 -29 -1 -45 16 -16 -4 -16 -21 1 -11 10 -12 7 -7 -15 4
-17 2 -28 -4 -28 -5 0 -10 -7 -10 -15 0 -8 -7 -15 -15 -15 -10 0 -12 -6 -8
-17 6 -16 5 -16 -10 -4 -10 8 -17 9 -17 3 0 -6 8 -16 18 -21 16 -10 16 -10 0
-11 -14 0 -18 -8 -18 -35 0 -29 3 -33 18 -28 15 6 15 5 -2 -12 -18 -18 -18
-19 3 -27 33 -12 25 -34 -19 -48 -54 -18 -49 -41 10 -57 45 -12 63 -12 581 3
209 6 216 5 221 -13 3 -11 6 -182 7 -379 1 -197 5 -362 9 -366 4 -4 18 -9 32
-13 l25 -6 -3 93 c-4 160 -13 242 -28 266 -12 18 -14 61 -13 221 2 221 -1 211
72 211 21 0 27 5 27 21 0 16 -5 20 -27 18 -56 -6 -64 8 -69 119 -4 74 -2 102
7 102 8 0 8 4 -1 15 -7 8 -8 15 -3 15 5 0 9 9 9 20 0 11 -4 20 -8 20 -4 0 -8
7 -8 15 0 8 3 15 8 15 4 0 8 51 8 114 2 118 15 182 42 204 11 8 12 12 3 12
-11 0 -11 3 -1 15 9 10 9 15 1 15 -6 0 -11 5 -11 11 0 6 6 9 12 7 31 -11 36
38 34 393 -1 304 -3 353 -16 356 -13 4 -13 3 0 -6 13 -9 13 -11 -2 -11 -10 0
-18 7 -18 16 0 10 -6 14 -15 10 -9 -3 -15 0 -15 8 0 7 -11 22 -25 32 -14 10
-25 26 -25 34 0 8 -4 21 -9 29 -7 11 -10 11 -17 0z"/>
<path d="M1836 2411 c48 -36 86 -44 92 -19 2 12 -8 19 -40 26 -24 6 -54 14
-68 17 -20 6 -16 1 16 -24z"/>
<path d="M4617 1204 c-1 -1 -20 -4 -43 -6 -23 -3 -46 -8 -53 -12 -14 -9 -15
-36 0 -36 5 0 7 -4 4 -10 -3 -5 -2 -10 4 -10 6 0 8 -7 5 -15 -4 -8 1 -17 10
-21 9 -3 16 -13 16 -21 0 -10 6 -12 20 -8 11 4 20 2 20 -4 0 -6 -5 -11 -11
-11 -6 0 -9 -6 -6 -14 3 -7 0 -19 -6 -25 -8 -8 -8 -11 0 -11 7 0 15 5 18 10 5
8 11 7 21 -1 18 -15 18 -30 0 -23 -8 3 -17 0 -22 -7 -5 -9 -2 -10 9 -6 22 8
22 -9 0 -22 -10 -6 -14 -11 -9 -11 5 0 17 7 27 16 16 14 19 14 39 -6 18 -18
19 -24 9 -38 -6 -9 2 -2 18 16 28 29 30 36 22 70 -5 20 -9 43 -9 51 0 26 13 2
20 -36 l7 -38 21 45 c18 40 21 42 21 18 1 -14 4 -35 7 -45 5 -16 4 -16 -10 1
-13 17 -16 17 -16 4 0 -9 -6 -18 -12 -21 -7 -2 -9 -8 -5 -13 4 -5 12 -3 16 4
4 7 12 12 17 11 5 -1 16 -1 23 0 12 1 12 4 3 13 -17 17 -15 39 3 32 9 -4 15 0
15 8 0 8 7 15 15 16 8 1 22 3 30 4 16 1 21 28 5 28 -5 0 -10 -4 -10 -10 0 -5
-10 -10 -22 -10 -16 0 -19 3 -10 8 8 5 10 16 5 28 -6 16 -4 17 8 7 12 -10 20
-9 37 3 12 8 28 12 35 9 15 -8 -15 16 -40 31 -16 10 -14 11 9 7 15 -3 33 -11
39 -19 6 -8 16 -14 21 -14 6 0 6 6 -1 14 -9 11 -9 15 1 19 7 3 3 6 -9 6 -12 1
-25 6 -29 13 -5 8 4 9 35 4 28 -4 40 -3 36 4 -3 6 -11 8 -16 5 -5 -4 -9 -1 -9
4 0 6 -16 11 -35 11 -19 0 -35 -4 -35 -10 0 -6 -10 -5 -27 1 -22 8 -218 19
-226 13z m193 -78 c0 -3 -4 -8 -10 -11 -5 -3 -10 -1 -10 4 0 6 5 11 10 11 6 0
10 -2 10 -4z m-5 -36 c3 -5 1 -10 -4 -10 -6 0 -11 5 -11 10 0 6 2 10 4 10 3 0
8 -4 11 -10z m-138 -16 c-3 -3 -12 -4 -19 -1 -8 3 -5 6 6 6 11 1 17 -2 13 -5z
m-27 -48 c0 -3 -4 -8 -10 -11 -5 -3 -10 -1 -10 4 0 6 5 11 10 11 6 0 10 -2 10
-4z m40 -59 c0 -5 -4 -5 -10 -2 -5 3 -10 14 -10 23 0 15 2 15 10 2 5 -8 10
-19 10 -23z"/>
<path d="M4480 1170 c-8 -5 -12 -11 -9 -14 2 -3 11 -1 19 4 8 5 12 11 9 14 -2
3 -11 1 -19 -4z"/>
<path d="M2856 1065 c17 -13 17 -14 2 -15 -10 0 -18 -4 -18 -9 0 -19 17 -20
32 -2 14 16 13 19 -3 29 -27 17 -36 15 -13 -3z"/>
<path d="M2776 1061 c-4 -5 3 -7 14 -4 23 6 26 13 6 13 -8 0 -17 -4 -20 -9z"/>
<path d="M2940 1029 c0 -5 5 -7 10 -4 6 3 10 8 10 11 0 2 -4 4 -10 4 -5 0 -10
-5 -10 -11z"/>
<path d="M4830 988 c-16 -12 -18 -16 -5 -10 14 8 22 6 30 -5 9 -12 11 -11 12
6 2 29 -9 32 -37 9z"/>
<path d="M4630 930 c0 -11 5 -20 10 -20 6 0 10 9 10 20 0 11 -4 20 -10 20 -5
0 -10 -9 -10 -20z"/>
<path d="M4740 939 c0 -5 9 -9 20 -9 11 0 20 2 20 4 0 2 -9 6 -20 9 -11 3 -20
1 -20 -4z"/>
<path d="M4860 935 c-11 -13 -10 -14 4 -9 9 3 16 10 16 15 0 13 -6 11 -20 -6z"/>
<path d="M4896 935 c-9 -26 -7 -32 5 -12 6 10 9 21 6 23 -2 3 -7 -2 -11 -11z"/>
<path d="M4810 930 c0 -5 5 -10 10 -10 6 0 10 5 10 10 0 6 -4 10 -10 10 -5 0
-10 -4 -10 -10z"/>
<path d="M4777 903 c-13 -13 -7 -21 13 -16 11 3 17 9 14 14 -6 11 -18 12 -27
2z"/>
<path d="M4838 883 c7 -3 16 -2 19 1 4 3 -2 6 -13 5 -11 0 -14 -3 -6 -6z"/>
<path d="M4700 870 c0 -5 5 -10 11 -10 5 0 7 5 4 10 -3 6 -8 10 -11 10 -2 0
-4 -4 -4 -10z"/>
<path d="M4950 850 c0 -5 5 -10 11 -10 5 0 7 5 4 10 -3 6 -8 10 -11 10 -2 0
-4 -4 -4 -10z"/>
<path d="M4622 830 c0 -14 2 -19 5 -12 2 6 2 18 0 25 -3 6 -5 1 -5 -13z"/>
<path d="M4775 820 c-3 -5 -2 -10 4 -10 5 0 13 5 16 10 3 6 2 10 -4 10 -5 0
-13 -4 -16 -10z"/>
<path d="M4690 810 c0 -5 5 -10 10 -10 6 0 10 5 10 10 0 6 -4 10 -10 10 -5 0
-10 -4 -10 -10z"/>
<path d="M3870 714 c0 -8 5 -12 10 -9 6 3 10 10 10 16 0 5 -4 9 -10 9 -5 0
-10 -7 -10 -16z"/>
<path d="M4728 653 c7 -3 16 -2 19 1 4 3 -2 6 -13 5 -11 0 -14 -3 -6 -6z"/>
<path d="M3845 600 c-3 -5 -1 -10 4 -10 6 0 11 5 11 10 0 6 -2 10 -4 10 -3 0
-8 -4 -11 -10z"/>
<path d="M3870 590 c0 -5 5 -10 10 -10 6 0 10 5 10 10 0 6 -4 10 -10 10 -5 0
-10 -4 -10 -10z"/>
<path d="M2810 570 c0 -5 7 -10 16 -10 8 0 12 5 9 10 -3 6 -10 10 -16 10 -5 0
-9 -4 -9 -10z"/>
<path d="M4448 573 c7 -3 16 -2 19 1 4 3 -2 6 -13 5 -11 0 -14 -3 -6 -6z"/>
<path d="M4344 544 c3 -6 -3 -19 -14 -29 -11 -10 -20 -24 -20 -32 0 -8 -4 -11
-10 -8 -6 4 -9 -4 -7 -17 1 -18 -4 -24 -22 -26 -19 -3 -21 -6 -10 -13 12 -7
11 -9 -2 -9 -18 0 -29 -20 -29 -51 0 -13 7 -19 23 -19 15 0 18 3 9 9 -10 6 -7
12 12 24 14 10 30 17 36 17 5 0 10 7 10 15 0 9 9 15 22 15 21 0 21 -1 3 -13
-12 -10 -14 -16 -7 -21 10 -6 39 19 78 66 15 19 23 68 12 68 -5 0 -16 7 -24
15 -9 8 -21 15 -27 15 -8 0 -7 -3 2 -9 11 -7 11 -9 0 -13 -8 -3 -20 2 -27 11
-8 9 -11 11 -8 5z"/>
<path d="M1310 511 c0 -10 8 -21 18 -25 9 -3 24 -9 32 -12 8 -3 5 4 -7 14 -13
11 -23 25 -23 31 0 6 -4 11 -10 11 -5 0 -10 -8 -10 -19z"/>
<path d="M2795 499 c-12 -18 3 -22 20 -5 14 14 14 16 1 16 -8 0 -18 -5 -21
-11z"/>
<path d="M4236 472 c-4 -13 -5 -26 -2 -29 10 -11 18 4 14 29 l-4 23 -8 -23z"/>
<path d="M2954 435 c-3 -14 -10 -25 -15 -25 -5 0 -9 -4 -9 -10 0 -14 37 -13
46 2 4 6 3 13 -3 15 -6 2 -9 13 -6 23 3 11 3 20 -1 20 -3 0 -8 -11 -12 -25z"/>
<path d="M2860 430 c0 -13 5 -18 15 -14 12 5 13 10 4 20 -15 19 -19 18 -19 -6z"/>
<path d="M1010 420 c0 -5 5 -10 10 -10 6 0 10 5 10 10 0 6 -4 10 -10 10 -5 0
-10 -4 -10 -10z"/>
<path d="M2750 410 c0 -5 5 -10 10 -10 6 0 10 5 10 10 0 6 -4 10 -10 10 -5 0
-10 -4 -10 -10z"/>
<path d="M4680 383 c-8 -2 -20 -15 -26 -28 -9 -19 -9 -27 2 -36 16 -13 19 -33
4 -24 -5 3 -10 2 -10 -4 0 -5 4 -13 10 -16 6 -4 4 -19 -5 -42 -18 -43 -18 -44
-1 -37 7 3 16 -2 19 -10 4 -10 1 -13 -7 -10 -7 3 -16 -2 -19 -10 -4 -10 -1
-13 9 -9 7 3 14 0 14 -6 0 -6 -5 -11 -11 -11 -8 0 -8 -4 1 -15 6 -8 8 -20 4
-26 -5 -8 -2 -10 8 -6 14 5 15 1 8 -24 -5 -17 -5 -29 1 -29 5 0 9 -9 9 -20 0
-19 7 -20 235 -20 250 0 242 -2 228 48 -4 16 -8 20 -13 11 -5 -6 -15 -9 -24
-6 -12 5 -15 14 -10 33 5 19 4 25 -5 20 -6 -4 -11 -2 -11 5 0 8 -4 8 -15 -1
-20 -16 -19 0 1 28 8 12 13 28 11 35 -3 7 -6 4 -6 -6 -1 -14 -7 -16 -38 -11
-21 3 -46 6 -55 7 -10 1 -18 5 -18 9 0 4 -9 8 -20 8 -11 0 -20 5 -20 11 0 5 5
7 11 3 7 -4 10 -1 7 7 -3 8 -11 13 -17 12 -6 -2 -11 4 -11 13 0 12 -7 14 -31
9 -29 -7 -31 -5 -26 15 3 12 3 28 0 36 -4 12 -8 11 -19 -3 -8 -11 -13 -13 -14
-5 0 6 -7 12 -16 12 -13 0 -14 3 -4 15 10 12 8 16 -14 25 -14 5 -26 15 -26 22
0 8 -5 6 -11 -4 -15 -26 -27 -22 -21 7 2 15 0 25 -7 25 -6 0 -11 -11 -11 -25
0 -18 -4 -23 -15 -19 -8 4 -15 13 -15 21 0 8 5 11 10 8 6 -3 10 -2 10 4 0 13
-11 18 -30 14z m53 -87 c6 -15 -1 -26 -15 -26 -4 0 -8 9 -8 20 0 23 15 27 23
6z m75 -108 c-2 -6 -10 -14 -16 -16 -7 -2 -10 2 -6 12 7 18 28 22 22 4z m102
-160 c0 -5 -5 -6 -10 -3 -6 4 -17 1 -25 -5 -16 -13 -18 -10 -9 13 6 16 44 12
44 -5z"/>
<path d="M3831 364 c0 -11 3 -14 6 -6 3 7 2 16 -1 19 -3 4 -6 -2 -5 -13z"/>
<path d="M4297 366 c-4 -10 0 -12 14 -9 10 3 16 9 13 14 -8 13 -21 11 -27 -5z"/>
<path d="M4088 333 c7 -3 16 -2 19 1 4 3 -2 6 -13 5 -11 0 -14 -3 -6 -6z"/>
<path d="M2643 317 c-3 -5 0 -14 6 -20 9 -9 14 -8 21 3 8 12 10 10 10 -9 0
-24 1 -24 14 -6 8 11 12 24 10 30 -5 13 -53 15 -61 2z"/>
<path d="M4005 290 c3 -5 8 -10 11 -10 2 0 4 5 4 10 0 6 -5 10 -11 10 -5 0 -7
-4 -4 -10z"/>
<path d="M844 275 c-10 -8 -14 -14 -9 -15 15 0 40 18 34 24 -3 3 -14 -1 -25
-9z"/>
<path d="M1064 273 c0 -10 7 -24 14 -31 15 -17 16 -32 1 -32 -7 0 -18 -8 -25
-17 -7 -10 -16 -15 -20 -10 -4 4 -2 13 4 19 20 20 15 58 -7 58 -10 0 -22 -7
-25 -16 -5 -13 -9 -14 -20 -5 -16 13 -32 -2 -21 -19 3 -5 1 -10 -4 -10 -6 0
-11 13 -11 29 0 17 -6 31 -16 35 -24 9 -28 7 -14 -9 10 -12 10 -15 -4 -15 -9
0 -16 7 -16 15 0 13 -2 14 -14 3 -8 -7 -12 -16 -10 -20 2 -4 0 -9 -6 -13 -5
-3 -10 -15 -10 -26 0 -10 -7 -19 -15 -19 -8 0 -15 6 -15 14 0 8 7 16 15 20 23
9 18 31 -8 32 -20 1 -24 -3 -24 -28 0 -16 -4 -33 -10 -36 -5 -4 -12 -19 -15
-34 -4 -23 -2 -28 16 -28 19 0 18 -2 -8 -23 -23 -19 -27 -28 -22 -48 6 -18 5
-20 -3 -9 -9 13 -11 12 -11 -6 0 -42 12 -44 268 -44 204 0 250 3 278 16 36 17
48 46 15 37 -22 -6 -34 9 -25 32 4 10 14 15 25 12 14 -4 18 0 16 17 -2 16 3
20 21 19 23 -3 31 20 12 32 -6 4 -8 11 -5 16 4 5 1 9 -6 9 -6 0 -18 8 -25 17
-10 15 -17 16 -43 7 -24 -10 -31 -9 -35 2 -3 8 0 14 7 14 6 0 1 7 -11 16 -28
19 -52 12 -52 -17 0 -15 5 -19 15 -15 9 3 15 0 15 -9 0 -18 -2 -18 -35 -3 -14
6 -25 17 -25 25 0 7 -11 13 -24 13 -13 0 -34 11 -47 25 -28 29 -37 31 -35 8z
m-24 -33 c0 -5 -4 -10 -10 -10 -5 0 -10 5 -10 10 0 6 5 10 10 10 6 0 10 -4 10
-10z m75 -20 c3 -5 1 -10 -4 -10 -6 0 -11 5 -11 10 0 6 2 10 4 10 3 0 8 -4 11
-10z m202 -37 c-15 -16 -17 -16 -17 -1 0 9 6 18 13 21 20 7 22 -2 4 -20z
m-137 -39 c0 -17 -22 -14 -28 4 -2 7 3 12 12 12 9 0 16 -7 16 -16z m131 -18
c-11 -28 -36 -35 -45 -11 -3 9 0 15 8 15 7 0 19 7 26 15 18 21 22 13 11 -19z
m-426 -105 c-9 -16 -25 -3 -18 15 4 10 9 12 15 6 6 -6 7 -15 3 -21z"/>
<path d="M3950 278 c0 -9 5 -20 11 -23 17 -11 18 -2 3 19 -12 17 -14 17 -14 4z"/>
<path d="M1374 218 c8 -48 12 -56 26 -42 10 11 -10 84 -24 84 -5 0 -6 -19 -2
-42z"/>
<path d="M4960 205 c0 -9 6 -12 15 -9 8 4 12 10 9 15 -8 14 -24 10 -24 -6z"/>
<path d="M4150 144 c0 -8 5 -12 10 -9 6 3 10 10 10 16 0 5 -4 9 -10 9 -5 0
-10 -7 -10 -16z"/>
<path d="M4110 140 c0 -5 5 -10 11 -10 5 0 7 5 4 10 -3 6 -8 10 -11 10 -2 0
-4 -4 -4 -10z"/>
<path d="M5302 107 c-10 -12 -10 -16 3 -21 11 -4 14 -15 11 -40 -3 -26 -1 -33
9 -30 9 4 10 15 3 47 -13 61 -13 61 -26 44z"/>
<path d="M3210 90 c0 -5 5 -10 10 -10 6 0 10 5 10 10 0 6 -4 10 -10 10 -5 0
-10 -4 -10 -10z"/>
<path d="M723 33 c4 -6 1 -13 -5 -16 -8 -2 -9 -8 -4 -13 5 -5 11 -3 14 5 4 11
6 11 13 0 4 -7 10 -11 14 -8 3 3 -5 14 -17 25 -12 10 -18 14 -15 7z"/>
<path d="M660 19 c0 -5 5 -7 10 -4 6 3 10 8 10 11 0 2 -4 4 -10 4 -5 0 -10 -5
-10 -11z"/>
<path d="M4080 19 c0 -5 5 -7 10 -4 6 3 10 8 10 11 0 2 -4 4 -10 4 -5 0 -10
-5 -10 -11z"/>
<path d="M5217 24 c-16 -16 -5 -22 38 -22 32 0 45 4 45 14 0 16 -16 19 -25 4
-5 -8 -12 -7 -23 2 -12 10 -14 10 -8 1 4 -7 3 -13 -3 -13 -5 0 -11 5 -13 11
-2 5 -7 7 -11 3z"/>
</g>
</svg>
